# xmcd
#
# Track frame offsets:
#	150
#	11233
#	31039
#	43209
#	65613
#	80245
#
# Disc length: 1278 seconds
#
# Revision: 0
# Processed by: cddbd v1.4PL0 Copyright (c) Steve Scherf et al.
# Submitted via: dBpowerAMP V4.0
#
DISCID=4d04fc06
DTITLE=B.B. King - B.B. King
DYEAR=1994
DGENRE=Blues
TTITLE0=Catfish Blues
TTITLE1=How Blue Can You Get
TTITLE2=Please Love Me
TTITLE3=Everyday I Have The Blues
TTITLE4=B.B. Boogie
TTITLE5=Walkin' And Cryin'
EXTD=
EXTT0=
EXTT1=
EXTT2=
EXTT3=
EXTT4=
EXTT5=
PLAYORDER=
